<?xml version="1.0" standalone="no"?>
<!DOCTYPE svg PUBLIC "-//W3C//DTD SVG 20010904//EN"
 "http://www.w3.org/TR/2001/REC-SVG-20010904/DTD/svg10.dtd">
<svg version="1.0" xmlns="http://www.w3.org/2000/svg"
 width="260.000000pt" height="260.000000pt" viewBox="0 0 260.000000 260.000000"
 preserveAspectRatio="xMidYMid meet">
<metadata>
Created by potrace 1.14, written by Peter Selinger 2001-2017
</metadata>
<g transform="translate(0.000000,260.000000) scale(0.100000,-0.100000)"
fill="#000000" stroke="none">
<path d="M329 2593 c-1 -5 -3 -35 -4 -68 -1 -33 -3 -64 -4 -70 0 -6 -29 -9
-70 -7 -85 3 -99 -8 -99 -75 0 -110 8 -100 -77 -98 l-75 1 0 -976 0 -976 75 1
75 2 1 -31 c0 -17 0 -49 0 -71 -2 -59 17 -77 76 -75 107 4 100 9 99 -73 l-1
-72 975 0 975 0 -1 73 c0 81 -7 76 98 72 61 -2 80 15 78 73 -1 23 -1 56 -1 73
l1 30 73 0 72 -1 3 976 2 975 -75 -1 -75 -1 -1 30 c-1 17 0 47 1 68 3 65 -14
78 -101 78 l-76 0 2 75 1 75 -973 0 c-535 0 -974 -3 -974 -7z"/>
</g>
</svg>
